<svg width="34" height="34" viewBox="0 0 34 34" fill="none" xmlns="http://www.w3.org/2000/svg">
<g clip-path="url(#clip0_3_125)">
<path fill-rule="evenodd" clip-rule="evenodd" d="M23.0105 21.505C23.426 21.9194 23.426 22.5994 23.0105 23.0138C22.5962 23.4282 21.9226 23.4282 21.5071 23.0138L17.0064 18.5088L12.4737 23.0456C12.0551 23.4599 11.3773 23.4599 10.9587 23.0456C10.5411 22.6206 10.5411 21.9406 10.9587 21.5263L15.4913 16.9894L10.9905 12.495C10.5751 12.0806 10.5751 11.4006 10.9905 10.9862C11.4038 10.5718 12.0774 10.5718 12.4929 10.9862L16.9936 15.4912L21.5602 10.9225C21.9789 10.5082 22.6557 10.5082 23.0743 10.9225C23.4919 11.3475 23.4919 12.0168 23.0743 12.4418L18.5087 17.0106L23.0105 21.505ZM17 0C7.61069 0 0 7.6075 0 17C0 26.3925 7.61069 34 17 34C26.3893 34 34 26.3925 34 17C34 7.6075 26.3893 0 17 0Z" fill="#FF0000"/>
</g>
<defs>
<clipPath id="clip0_3_125">
<rect width="34" height="34" fill="white"/>
</clipPath>
</defs>
</svg>
