<svg width="171" height="171" viewBox="0 0 171 171" fill="none" xmlns="http://www.w3.org/2000/svg">
<path d="M113.421 140.173H104.32C102.483 140.173 100.98 138.67 100.98 136.833V123.858H116.761V136.833C116.761 138.67 115.258 140.173 113.421 140.173Z" fill="#FF9494"/>
<path d="M87.3035 44.4867H82.0433C81.058 44.4867 80.2398 43.6852 80.2398 42.6832V39.2933C80.2398 39.0428 80.0394 38.8257 79.7722 38.8257H76.3822C75.397 38.8257 74.5787 38.0241 74.5787 37.0222V31.7619C74.5787 30.7767 75.3803 29.9584 76.3822 29.9584H76.449V31.2943H76.3822C76.1318 31.2943 75.9147 31.5114 75.9147 31.7619V37.0222C75.9147 37.2727 76.1318 37.4897 76.3822 37.4897H79.7722C80.7574 37.4897 81.5757 38.2913 81.5757 39.2933V42.6832C81.5757 42.9337 81.7928 43.1508 82.0433 43.1508H87.3035C87.554 43.1508 87.7711 42.9337 87.7711 42.6832V39.2933C87.7711 38.308 88.5727 37.4897 89.5746 37.4897H92.9646C93.2151 37.4897 93.4322 37.2727 93.4322 37.0222V31.7619C93.4322 31.5114 93.2318 31.2943 92.9646 31.2943H89.5746C88.5894 31.2943 87.7711 30.4928 87.7711 29.4908V26.1009C87.7711 25.8504 87.5707 25.6333 87.3035 25.6333H82.0433C81.7928 25.6333 81.5757 25.8504 81.5757 26.1009V29.4908C81.5757 30.4761 80.7741 31.2943 79.7722 31.2943H78.9205V29.9584H79.7722C80.0227 29.9584 80.2398 29.758 80.2398 29.4908V26.1009C80.2398 25.1156 81.0413 24.2974 82.0433 24.2974H87.3035C88.2888 24.2974 89.1071 25.0989 89.1071 26.1009V29.4908C89.1071 29.7413 89.3074 29.9584 89.5746 29.9584H92.9646C93.9498 29.9584 94.7681 30.76 94.7681 31.7619V37.0222C94.7681 38.0074 93.9665 38.8257 92.9646 38.8257H89.5746C89.3241 38.8257 89.1071 39.0261 89.1071 39.2933V42.6832C89.1071 43.6852 88.2888 44.4867 87.3035 44.4867Z" fill="#FF0202"/>
<path d="M85.2161 97.1227C93.2484 97.1227 100.596 98.7425 107.075 101.949C113.187 104.971 118.498 109.397 122.856 115.091C127.081 120.618 130.354 127.265 132.575 134.846C134.562 141.643 135.664 149.024 135.865 156.822H34.5674C34.7678 149.024 35.8699 141.643 37.8571 134.846C40.0781 127.281 43.3512 120.635 47.5761 115.091C51.9346 109.397 57.2449 104.971 63.3568 101.949C69.8194 98.7425 77.1671 97.1227 85.2161 97.1227ZM85.2161 94.6178C50.465 94.6178 32.0291 123.574 32.0291 159.311H138.386C138.386 123.574 119.95 94.6178 85.2161 94.6178Z" fill="white"/>
<path d="M85.7338 137.468C83.6965 137.468 82.06 135.815 82.06 133.794C82.06 131.757 83.7132 130.12 85.7338 130.12C87.7711 130.12 89.4076 131.774 89.4076 133.794C89.4243 135.815 87.7711 137.468 85.7338 137.468ZM85.7338 131.44C84.448 131.44 83.3959 132.492 83.3959 133.777C83.3959 135.063 84.448 136.115 85.7338 136.115C87.0197 136.115 88.0717 135.063 88.0717 133.777C88.0884 132.492 87.0364 131.44 85.7338 131.44ZM85.7338 152.18C83.6965 152.18 82.06 150.527 82.06 148.506C82.06 146.486 83.7132 144.832 85.7338 144.832C87.7711 144.832 89.4076 146.486 89.4076 148.506C89.4076 150.527 87.7711 152.18 85.7338 152.18ZM85.7338 146.152C84.448 146.152 83.3959 147.204 83.3959 148.489C83.3959 149.775 84.448 150.827 85.7338 150.827C87.0197 150.827 88.0717 149.775 88.0717 148.489C88.0717 147.204 87.0364 146.152 85.7338 146.152ZM86.2515 90.994H83.0953C75.9481 90.994 69.2016 88.1886 64.1083 83.0953C59.0151 78.002 56.2096 71.2556 56.2096 64.1083V53.0367H111.868C112.569 53.0367 113.137 53.6045 113.137 54.3059V64.1083C113.137 71.2556 110.332 78.002 105.239 83.0953C100.145 88.1886 93.3988 90.994 86.2515 90.994ZM58.7145 55.5416V64.1083C58.7145 70.5876 61.2528 76.6995 65.8784 81.3252C70.5041 85.9509 76.616 88.4892 83.0953 88.4892H86.2515C92.7308 88.4892 98.8427 85.9509 103.468 81.3252C108.094 76.6995 110.632 70.5876 110.632 64.1083V55.5416H58.7145Z" fill="white"/>
<path d="M113.137 55.5416H56.2096V22.4938C56.2096 20.2729 57.5288 18.2355 59.5494 17.3171C64.6093 15.0293 74.6455 11.1885 85.2161 11.1885C95.7533 11.1885 105.222 14.9959 109.931 17.2837C111.885 18.2188 113.137 20.2395 113.137 22.4104V55.5416ZM58.7145 53.0367H110.632V22.4104C110.632 21.1913 109.931 20.0725 108.829 19.5548C104.32 17.3672 95.2357 13.7101 85.1994 13.7101C75.0964 13.7101 65.4443 17.4006 60.5848 19.6049C59.4492 20.1226 58.7145 21.2581 58.7145 22.5105V53.0367ZM85.7338 115.659C77.5512 115.659 70.8882 108.996 70.8882 100.813V97.4399H72.2241V100.813C72.2241 108.261 78.286 114.323 85.7338 114.323C93.1817 114.323 99.2435 108.261 99.2435 100.813V97.9743H100.579V100.813C100.596 108.996 93.9331 115.659 85.7338 115.659ZM113.421 140.307H102.366C100.162 140.307 98.3584 138.503 98.3584 136.299V121.236H117.429V136.299C117.429 138.503 115.625 140.307 113.421 140.307ZM99.6944 122.572V136.299C99.6944 137.769 100.897 138.971 102.366 138.971H113.421C114.891 138.971 116.093 137.769 116.093 136.299V122.572H99.6944Z" fill="white"/>
<path d="M108.562 122.088H107.226V118.815C107.226 117.562 106.207 116.561 104.971 116.561C103.736 116.561 102.717 117.579 102.717 118.815H101.381C101.381 116.828 103.001 115.225 104.971 115.225C106.942 115.225 108.562 116.844 108.562 118.815V122.088Z" fill="white"/>
<path d="M93.8997 127.532C89.0402 127.532 85.0825 123.574 85.0825 118.715V114.991H86.4185V118.715C86.4185 122.839 89.775 126.196 93.8997 126.196C98.0244 126.196 101.381 122.839 101.381 118.715H102.717C102.717 123.574 98.7592 127.532 93.8997 127.532Z" fill="white"/>
</svg>
