<svg width="171" height="171" viewBox="0 0 171 171" fill="none" xmlns="http://www.w3.org/2000/svg">
<path d="M71.25 71.25C86.9901 71.25 99.75 58.4901 99.75 42.75C99.75 27.0099 86.9901 14.25 71.25 14.25C55.5099 14.25 42.75 27.0099 42.75 42.75C42.75 58.4901 55.5099 71.25 71.25 71.25Z" stroke="white" stroke-width="3.75"/>
<path d="M149.625 71.25H135.375M135.375 71.25H121.125M135.375 71.25V57M135.375 71.25V85.5" stroke="white" stroke-width="3.75" stroke-linecap="round"/>
<path d="M128.232 128.25C128.25 127.08 128.25 125.892 128.25 124.688C128.25 106.98 102.73 92.625 71.25 92.625C39.7698 92.625 14.25 106.98 14.25 124.688C14.25 142.395 14.25 156.75 71.25 156.75C87.1459 156.75 98.6086 155.634 106.875 153.639" stroke="white" stroke-width="3.75" stroke-linecap="round"/>
</svg>
